<mxfile host="app.diagrams.net" modified="2023-12-08T04:36:41.071Z" agent="Mozilla/5.0 (Windows NT 10.0; Win64; x64) AppleWebKit/537.36 (KHTML, like Gecko) Chrome/119.0.0.0 Safari/537.36 Edg/119.0.0.0" etag="smx6gUCSr3Di8jPj7Qp9" version="21.6.9" type="device">
  <diagram name="Page-1" id="SS9usnpKeBxcwt28HRz8">
    <mxGraphModel dx="1578" dy="732" grid="0" gridSize="1" guides="1" tooltips="1" connect="1" arrows="1" fold="1" page="0" pageScale="1" pageWidth="827" pageHeight="1169" math="0" shadow="0">
      <root>
        <mxCell id="0" />
        <mxCell id="1" parent="0" />
        <mxCell id="VhMTnD6a8nUod0TWRN0Y-1" value="Start" style="ellipse;whiteSpace=wrap;html=1;fontStyle=1;strokeWidth=2;" parent="1" vertex="1">
          <mxGeometry x="180" y="270" width="103" height="62" as="geometry" />
        </mxCell>
        <mxCell id="VhMTnD6a8nUod0TWRN0Y-4" value="Have and Account" style="rhombus;whiteSpace=wrap;html=1;fontStyle=1;strokeWidth=2;" parent="1" vertex="1">
          <mxGeometry x="184.5" y="383" width="93.5" height="107" as="geometry" />
        </mxCell>
        <mxCell id="VhMTnD6a8nUod0TWRN0Y-5" value="" style="endArrow=classic;html=1;rounded=0;exitX=0.5;exitY=1;exitDx=0;exitDy=0;entryX=0.5;entryY=0;entryDx=0;entryDy=0;fontStyle=1;strokeWidth=2;" parent="1" source="VhMTnD6a8nUod0TWRN0Y-1" target="VhMTnD6a8nUod0TWRN0Y-4" edge="1">
          <mxGeometry width="50" height="50" relative="1" as="geometry">
            <mxPoint x="322" y="561" as="sourcePoint" />
            <mxPoint x="372" y="511" as="targetPoint" />
          </mxGeometry>
        </mxCell>
        <mxCell id="VhMTnD6a8nUod0TWRN0Y-6" value="" style="endArrow=classic;html=1;rounded=0;fontStyle=1;strokeWidth=2;" parent="1" target="VhMTnD6a8nUod0TWRN0Y-10" edge="1">
          <mxGeometry width="50" height="50" relative="1" as="geometry">
            <mxPoint x="183" y="436" as="sourcePoint" />
            <mxPoint x="124" y="509" as="targetPoint" />
            <Array as="points">
              <mxPoint x="124" y="436" />
            </Array>
          </mxGeometry>
        </mxCell>
        <mxCell id="VhMTnD6a8nUod0TWRN0Y-7" value="No" style="text;html=1;align=center;verticalAlign=middle;resizable=0;points=[];autosize=1;strokeColor=none;fillColor=none;fontStyle=1;strokeWidth=2;" parent="1" vertex="1">
          <mxGeometry x="139" y="407" width="34" height="26" as="geometry" />
        </mxCell>
        <mxCell id="VhMTnD6a8nUod0TWRN0Y-8" value="" style="endArrow=classic;html=1;rounded=0;exitX=1;exitY=0.5;exitDx=0;exitDy=0;fontStyle=1;strokeWidth=2;" parent="1" source="VhMTnD6a8nUod0TWRN0Y-4" edge="1">
          <mxGeometry width="50" height="50" relative="1" as="geometry">
            <mxPoint x="326" y="416" as="sourcePoint" />
            <mxPoint x="338" y="533" as="targetPoint" />
            <Array as="points">
              <mxPoint x="338" y="437" />
            </Array>
          </mxGeometry>
        </mxCell>
        <mxCell id="VhMTnD6a8nUod0TWRN0Y-9" value="Yes" style="text;html=1;align=center;verticalAlign=middle;resizable=0;points=[];autosize=1;strokeColor=none;fillColor=none;fontStyle=1;strokeWidth=2;" parent="1" vertex="1">
          <mxGeometry x="284" y="408" width="39" height="26" as="geometry" />
        </mxCell>
        <mxCell id="VhMTnD6a8nUod0TWRN0Y-10" value="Register&lt;br&gt;Page" style="rounded=0;whiteSpace=wrap;html=1;fontStyle=1;strokeWidth=2;" parent="1" vertex="1">
          <mxGeometry x="79" y="519" width="93" height="50" as="geometry" />
        </mxCell>
        <mxCell id="VhMTnD6a8nUod0TWRN0Y-11" value="Login Page" style="rounded=0;whiteSpace=wrap;html=1;fontStyle=1;strokeWidth=2;" parent="1" vertex="1">
          <mxGeometry x="293" y="522" width="93" height="53" as="geometry" />
        </mxCell>
        <mxCell id="VhMTnD6a8nUod0TWRN0Y-12" value="" style="endArrow=classic;html=1;rounded=0;entryX=0;entryY=0.25;entryDx=0;entryDy=0;fontStyle=1;strokeWidth=2;" parent="1" target="VhMTnD6a8nUod0TWRN0Y-11" edge="1">
          <mxGeometry width="50" height="50" relative="1" as="geometry">
            <mxPoint x="175" y="535" as="sourcePoint" />
            <mxPoint x="294" y="549" as="targetPoint" />
          </mxGeometry>
        </mxCell>
        <mxCell id="VhMTnD6a8nUod0TWRN0Y-15" value="" style="endArrow=classic;html=1;rounded=0;entryX=0.5;entryY=0;entryDx=0;entryDy=0;exitX=0.5;exitY=1;exitDx=0;exitDy=0;fontStyle=1;strokeWidth=2;" parent="1" source="VhMTnD6a8nUod0TWRN0Y-11" edge="1">
          <mxGeometry width="50" height="50" relative="1" as="geometry">
            <mxPoint x="322" y="545" as="sourcePoint" />
            <mxPoint x="339.00000000000045" y="628.0000000000002" as="targetPoint" />
          </mxGeometry>
        </mxCell>
        <mxCell id="VhMTnD6a8nUod0TWRN0Y-17" value="System" style="rounded=0;whiteSpace=wrap;html=1;fontStyle=1;strokeWidth=2;" parent="1" vertex="1">
          <mxGeometry x="284" y="631" width="101" height="53" as="geometry" />
        </mxCell>
        <mxCell id="VhMTnD6a8nUod0TWRN0Y-18" value="" style="endArrow=classic;startArrow=classic;html=1;rounded=0;fontStyle=1;strokeWidth=2;entryX=0;entryY=0.5;entryDx=0;entryDy=0;" parent="1" target="VhMTnD6a8nUod0TWRN0Y-19" edge="1">
          <mxGeometry width="50" height="50" relative="1" as="geometry">
            <mxPoint x="323" y="914" as="sourcePoint" />
            <mxPoint x="327" y="795" as="targetPoint" />
            <Array as="points">
              <mxPoint x="288" y="913.5" />
              <mxPoint x="288" y="791" />
            </Array>
          </mxGeometry>
        </mxCell>
        <mxCell id="VhMTnD6a8nUod0TWRN0Y-19" value="Manage Post" style="rounded=0;whiteSpace=wrap;html=1;fontStyle=1;strokeWidth=2;" parent="1" vertex="1">
          <mxGeometry x="323" y="762" width="94" height="50" as="geometry" />
        </mxCell>
        <mxCell id="VhMTnD6a8nUod0TWRN0Y-20" value="Manage Comment" style="rounded=0;whiteSpace=wrap;html=1;fontStyle=1;strokeWidth=2;" parent="1" vertex="1">
          <mxGeometry x="325" y="823.5" width="94" height="44.5" as="geometry" />
        </mxCell>
        <mxCell id="VhMTnD6a8nUod0TWRN0Y-21" value="Manage Profile" style="rounded=0;whiteSpace=wrap;html=1;fontStyle=1;strokeWidth=2;" parent="1" vertex="1">
          <mxGeometry x="325" y="891.5" width="94" height="44.5" as="geometry" />
        </mxCell>
        <mxCell id="VhMTnD6a8nUod0TWRN0Y-23" value="" style="endArrow=classic;html=1;rounded=0;fontStyle=1;strokeWidth=2;" parent="1" edge="1">
          <mxGeometry width="50" height="50" relative="1" as="geometry">
            <mxPoint x="280" y="662" as="sourcePoint" />
            <mxPoint x="290" y="863" as="targetPoint" />
            <Array as="points">
              <mxPoint x="250" y="662" />
              <mxPoint x="250" y="863" />
            </Array>
          </mxGeometry>
        </mxCell>
        <mxCell id="FcL0OSpXBGixALuShktT-2" value="System" style="rounded=0;whiteSpace=wrap;html=1;fontStyle=1;strokeWidth=2;" vertex="1" parent="1">
          <mxGeometry x="468" y="771" width="66" height="166" as="geometry" />
        </mxCell>
        <mxCell id="FcL0OSpXBGixALuShktT-3" value="" style="endArrow=classic;html=1;rounded=0;" edge="1" parent="1">
          <mxGeometry width="50" height="50" relative="1" as="geometry">
            <mxPoint x="417" y="791" as="sourcePoint" />
            <mxPoint x="464" y="791" as="targetPoint" />
          </mxGeometry>
        </mxCell>
        <mxCell id="FcL0OSpXBGixALuShktT-4" value="" style="endArrow=classic;html=1;rounded=0;" edge="1" parent="1">
          <mxGeometry width="50" height="50" relative="1" as="geometry">
            <mxPoint x="418" y="843" as="sourcePoint" />
            <mxPoint x="465" y="843" as="targetPoint" />
          </mxGeometry>
        </mxCell>
        <mxCell id="FcL0OSpXBGixALuShktT-5" value="" style="endArrow=classic;html=1;rounded=0;" edge="1" parent="1">
          <mxGeometry width="50" height="50" relative="1" as="geometry">
            <mxPoint x="420" y="910" as="sourcePoint" />
            <mxPoint x="467" y="910" as="targetPoint" />
          </mxGeometry>
        </mxCell>
        <mxCell id="FcL0OSpXBGixALuShktT-6" value="" style="endArrow=classic;html=1;rounded=0;" edge="1" parent="1">
          <mxGeometry width="50" height="50" relative="1" as="geometry">
            <mxPoint x="539" y="853" as="sourcePoint" />
            <mxPoint x="595" y="853" as="targetPoint" />
          </mxGeometry>
        </mxCell>
        <mxCell id="FcL0OSpXBGixALuShktT-7" value="" style="ellipse;html=1;shape=endState;fillColor=#000000;strokeColor=#ff0000;" vertex="1" parent="1">
          <mxGeometry x="597" y="839" width="30" height="30" as="geometry" />
        </mxCell>
      </root>
    </mxGraphModel>
  </diagram>
</mxfile>
